Coordinates
version=1
nRows=30
nColumns=38
inDegrees=no

Units are S.I. units (second, meters, Newtons, ...)
If the header above contains a line with 'inDegrees', this indicates whether rotational values are in degrees (yes) or radians (no).

endheader
time	pelvis_tilt	pelvis_list	pelvis_rotation	pelvis_tx	pelvis_ty	pelvis_tz	hip_flexion_r	hip_adduction_r	hip_rotation_r	knee_angle_r	ankle_angle_r	subtalar_angle_r	mtp_angle_r	hip_flexion_l	hip_adduction_l	hip_rotation_l	knee_angle_l	ankle_angle_l	subtalar_angle_l	mtp_angle_l	lumbar_extension	lumbar_bending	lumbar_rotation	arm_flex_r	arm_add_r	arm_rot_r	elbow_flex_r	pro_sup_r	wrist_flex_r	wrist_dev_r	arm_flex_l	arm_add_l	arm_rot_l	elbow_flex_l	pro_sup_l	wrist_flex_l	wrist_dev_l
2.00501	0.117268	0.00984726	3.13802	-0.26062	0.978468	0.00600009	0.301232	-0.0785208	-0.277008	0.357862	0.102841	0	0	0.286251	-0.130965	-0.138763	0.324014	0.115441	0	0	-0.0564027	0.0472538	0.128843	0.17877	-0.540962	0.815377	1.49355	1.37242	0	0	0.508859	-0.332301	1.2552	1.35376	1.20623	0	0
2.01499	0.115046	0.00857176	3.13462	-0.262589	0.980678	0.00549381	0.283234	-0.0742264	-0.274396	0.328691	0.0920216	0	0	0.264311	-0.126698	-0.140394	0.291103	0.103021	0	0	-0.0514031	0.04537	0.134122	0.160904	-0.536599	0.816532	1.45802	1.35972	0	0	0.491498	-0.328595	1.26157	1.31971	1.18413	0	0
2.02496	0.111467	0.00727691	3.1311	-0.264399	0.982422	0.00501435	0.265138	-0.0705614	-0.271858	0.30211	0.0827717	0	0	0.242267	-0.122709	-0.142284	0.260665	0.092121	0	0	-0.0484343	0.0436372	0.138708	0.146724	-0.531669	0.82095	1.42024	1.34493	0	0	0.475163	-0.32453	1.26862	1.28405	1.15875	0	0
2.03494	0.106332	0.0060265	3.1276	-0.266038	0.983751	0.00456831	0.246715	-0.0674674	-0.269525	0.278094	0.0750844	0	0	0.220041	-0.119045	-0.14432	0.232855	0.0827998	0	0	-0.0477905	0.0421284	0.142404	0.136345	-0.526114	0.828953	1.38008	1.3278	0	0	0.459922	-0.319986	1.27658	1.24648	1.12992	0	0
2.04491	0.099474	0.00487757	3.12429	-0.2675	0.984721	0.00416349	0.227746	-0.0648783	-0.267512	0.25657	0.0689102	0	0	0.197582	-0.115746	-0.146358	0.207801	0.075084	0	0	-0.0497274	0.0409045	0.14502	0.129812	-0.519848	0.840832	1.33741	1.30816	0	0	0.445832	-0.314823	1.28575	1.20671	1.09748	0	0
2.05489	0.0907774	0.00387606	3.12131	-0.26878	0.985396	0.00380829	0.208049	-0.0627276	-0.265915	0.23743	0.0641626	0	0	0.174872	-0.112839	-0.148235	0.185608	0.0689611	0	0	-0.0544401	0.040009	0.146382	0.127084	-0.512766	0.856848	1.29207	1.28582	0	0	0.432935	-0.308893	1.29644	1.16442	1.06121	0	0
2.06486	0.0801926	0.00305389	3.11883	-0.269875	0.98584	0.00351063	0.187507	-0.060953	-0.264815	0.220555	0.0607239	0	0	0.15195	-0.11034	-0.149784	0.166355	0.0643803	0	0	-0.0620347	0.0394655	0.146346	0.128033	-0.504742	0.87723	1.24393	1.26056	0	0	0.421243	-0.302066	1.30899	1.11935	1.02092	0	0
2.07484	0.0677632	0.00242498	3.11699	-0.270785	0.98612	0.0032766	0.166107	-0.0595027	-0.264265	0.205824	0.0584548	0	0	0.128935	-0.108248	-0.150851	0.150092	0.0612559	0	0	-0.0724921	0.0392747	0.144806	0.132432	-0.495639	0.902169	1.19291	1.2321	0	0	0.410715	-0.294247	1.32364	1.07132	0.976443	0	0
2.08481	0.0536451	0.0019821	3.11587	-0.271511	0.986294	0.00310921	0.143975	-0.0583413	-0.26428	0.19314	0.0572052	0	0	0.106031	-0.106551	-0.151331	0.136836	0.0594707	0	0	-0.0856434	0.0394118	0.141721	0.139964	-0.485329	0.931811	1.13898	1.20007	0	0	0.401238	-0.2854	1.34054	1.02029	0.927661	0	0
2.09479	0.0381158	0.0017011	3.1155	-0.272049	0.986411	0.00300716	0.121389	-0.0574435	-0.264823	0.182433	0.0568208	0	0	0.083534	-0.105224	-0.151192	0.12655	0.0588796	0	0	-0.101157	0.0398309	0.137127	0.150219	-0.473703	0.966235	1.0822	1.16409	0	0	0.392616	-0.275577	1.35962	0.966425	0.87453	0	0
2.10476	0.0215659	0.00155246	3.1158	-0.272403	0.986504	0.00296518	0.0987684	-0.0567817	-0.265793	0.173645	0.0571442	0	0	0.0618044	-0.104247	-0.150488	0.119135	0.0593138	0	0	-0.118549	0.0404756	0.131152	0.162703	-0.460699	1.00542	1.02275	1.12372	0	0	0.384566	-0.264927	1.38057	0.910158	0.817049	0	0
2.11474	0.00448078	0.00151391	3.11667	-0.272588	0.986594	0.00296939	0.0766301	-0.0563165	-0.267041	0.166708	0.0580156	0	0	0.0412442	-0.103606	-0.149346	0.114408	0.0605863	0	0	-0.1372	0.0412945	0.124006	0.17683	-0.446324	1.04919	0.960994	1.0785	0	0	0.376719	-0.253707	1.40274	0.852187	0.755378	0	0
2.12471	-0.0125364	0.00157338	3.11791	-0.273071	0.986343	0.00307174	0.0555207	-0.0560003	-0.268385	0.161528	0.0592763	0	0	0.0222356	-0.103285	-0.147938	0.112105	0.0624972	0	0	-0.156398	0.0422419	0.115975	0.191917	-0.430681	1.0971	0.897447	1.02805	0	0	0.368643	-0.242269	1.4252	0.793477	0.689976	0	0
2.13469	-0.0289144	0.00172949	3.11933	-0.27371	0.985895	0.00323312	0.0360081	-0.0557862	-0.269616	0.157962	0.0607727	0	0	0.00514304	-0.103261	-0.146474	0.111865	0.0648406	0	0	-0.17537	0.0432782	0.107424	0.207198	-0.413999	1.14841	0.832861	0.972141	0	0	0.35989	-0.231033	1.44676	0.735206	0.62165	0	0
2.14467	-0.0440793	0.00196461	3.12073	-0.274404	0.985357	0.00342454	0.0186266	-0.0556586	-0.270564	0.155828	0.0623739	0	0	-0.00970297	-0.103473	-0.145129	0.113269	0.0674146	0	0	-0.193307	0.0443584	0.0987529	0.221819	-0.396651	1.20196	0.76821	0.910796	0	0	0.350058	-0.220447	1.46625	0.678668	0.551529	0	0
2.15464	-0.0574684	0.00222117	3.12201	-0.275083	0.984804	0.00362607	0.00383891	-0.0556667	-0.271185	0.154904	0.0639887	0	0	-0.0219929	-0.103792	-0.143955	0.11587	0.0700339	0	0	-0.209374	0.0454202	0.0903329	0.234832	-0.379157	1.25613	0.704679	0.844376	0	0	0.338868	-0.210905	1.48285	0.62513	0.480859	0	0
2.16462	-0.0686133	0.00244563	3.12312	-0.275708	0.984283	0.00382521	-0.00800862	-0.0558617	-0.271457	0.154946	0.0655472	0	0	-0.0315122	-0.104091	-0.142986	0.119229	0.072545	0	0	-0.222841	0.0464075	0.0825907	0.245266	-0.362169	1.30877	0.643619	0.773771	0	0	0.326235	-0.202701	1.49628	0.575696	0.411005	0	0
2.17459	-0.0772057	0.00261466	3.12396	-0.276258	0.983819	0.00401517	-0.0167305	-0.0562587	-0.271335	0.155714	0.0669897	0	0	-0.0381935	-0.104282	-0.142276	0.122948	0.0748341	0	0	-0.233193	0.0472886	0.0759761	0.252288	-0.346411	1.35747	0.586431	0.70037	0	0	0.312253	-0.196029	1.50661	0.531242	0.343407	0	0
2.18457	-0.0831181	0.00272865	3.12445	-0.276729	0.983423	0.00419324	-0.0223171	-0.0568424	-0.270768	0.156981	0.0682709	0	0	-0.0421193	-0.104318	-0.141885	0.126696	0.0768296	0	0	-0.240152	0.0480563	0.0708489	0.255374	-0.332557	1.40012	0.534378	0.625732	0	0	0.297133	-0.191008	1.51413	0.49236	0.279476	0	0
2.19454	-0.0864139	0.00280429	3.12451	-0.277123	0.983097	0.00435931	-0.0249397	-0.0575733	-0.269714	0.158547	0.0693629	0	0	-0.0435214	-0.104188	-0.141867	0.130221	0.0785014	0	0	-0.243691	0.0487247	0.0673886	0.254442	-0.321102	1.43555	0.488393	0.551132	0	0	0.281157	-0.187706	1.51924	0.45935	0.220437	0	0
2.20452	-0.0873406	0.00286719	3.12411	-0.277446	0.982835	0.00451489	-0.0249369	-0.0583983	-0.268148	0.160258	0.0702581	0	0	-0.0427674	-0.103913	-0.142267	0.133357	0.0798563	0	0	-0.244042	0.0493218	0.065594	0.249834	-0.312319	1.46357	0.449007	0.477556	0	0	0.264643	-0.186158	1.52241	0.432243	0.16735	0	0
2.21449	-0.0863085	0.0029451	3.12321	-0.277707	0.982629	0.00466224	-0.0227921	-0.0592592	-0.266064	0.162002	0.0709691	0	0	-0.0403431	-0.103531	-0.143115	0.136015	0.0809306	0	0	-0.24169	0.049878	0.0653307	0.242184	-0.306299	1.48468	0.416399	0.405951	0	0	0.247944	-0.186371	1.52406	0.41084	0.121184	0	0
2.22447	-0.0838557	0.00306193	3.12182	-0.277909	0.982473	0.00480403	-0.0191059	-0.060102	-0.26349	0.163704	0.0715265	0	0	-0.0368236	-0.10309	-0.14441	0.138168	0.0817804	0	0	-0.237325	0.0504181	0.0663723	0.2323	-0.302997	1.49973	0.390448	0.337383	0	0	0.231432	-0.188321	1.52462	0.394764	0.0827097	0	0
2.23444	-0.0805931	0.00323146	3.11998	-0.278057	0.98236	0.00494313	-0.0145499	-0.0608855	-0.260493	0.165316	0.0719756	0	0	-0.0328257	-0.102634	-0.146115	0.139838	0.082472	0	0	-0.231764	0.0509569	0.0684266	0.221045	-0.302266	1.50978	0.370789	0.273145	0	0	0.215464	-0.191953	1.52442	0.383497	0.0522407	0	0
2.24442	-0.0771332	0.00345784	3.11778	-0.278152	0.982284	0.00508247	-0.00979193	-0.0615853	-0.25718	0.166813	0.0723735	0	0	-0.0289405	-0.102199	-0.148157	0.141084	0.0830754	0	0	-0.225843	0.0514999	0.0711635	0.209254	-0.303893	1.5159	0.35687	0.214622	0	0	0.200354	-0.19718	1.52374	0.376438	0.0293402	0	0
2.25439	-0.0740284	0.00374053	3.11532	-0.278194	0.982244	0.00522509	-0.00542947	-0.0621898	-0.253676	0.168193	0.0727812	0	0	-0.0256795	-0.101812	-0.150445	0.141988	0.0836558	0	0	-0.220333	0.0520488	0.074248	0.197669	-0.30762	1.51908	0.348009	0.163122	0	0	0.186344	-0.20388	1.5228	0.372939	0.0131274	0	0
2.26437	-0.0717181	0.00407909	3.11271	-0.278182	0.982235	0.00537406	-0.00193368	-0.0626953	-0.250109	0.169472	0.073255	0	0	-0.0234277	-0.101496	-0.152879	0.142641	0.0842683	0	0	-0.215856	0.0526065	0.0773675	0.186893	-0.313163	1.5202	0.343462	0.119672	0	0	0.173594	-0.211904	1.52175	0.372341	0.00250767	0	0
2.27434	-0.0704859	0.00447361	3.11005	-0.278116	0.982257	0.00553246	0.000394562	-0.0631054	-0.246597	0.170679	0.07384	0	0	-0.0224095	-0.101265	-0.155366	0.143136	0.0849525	0	0	-0.212822	0.0531791	0.080253	0.177368	-0.32023	1.52	0.342471	0.0847908	0	0	0.162175	-0.221075	1.52072	0.374012	-0.00366312	0	0
2.28432	-0.0704406	0.00492108	3.10744	-0.277998	0.982306	0.00570326	0.00144354	-0.0634329	-0.24324	0.17185	0.0745679	0	0	-0.0226749	-0.101125	-0.157821	0.143554	0.0857285	0	0	-0.211399	0.0537725	0.0826893	0.169367	-0.328518	1.51902	0.344305	0.0582646	0	0	0.15208	-0.231193	1.51976	0.377363	-0.00646974	0	0
2.29429	-0.0715223	0.00541342	3.10496	-0.277831	0.982381	0.00588918	0.00128296	-0.0637	-0.240115	0.173029	0.0754557	0	0	-0.0241101	-0.101069	-0.160178	0.143962	0.0865968	0	0	-0.211523	0.0543905	0.0845249	0.162997	-0.337727	1.51768	0.348287	0.0393914	0	0	0.143238	-0.24203	1.51892	0.381851	-0.00687279	0	0
